<svg width="12" height="13" viewBox="0 0 12 13" fill="none" xmlns="http://www.w3.org/2000/svg">
<path d="M4.29787 3.35978H6.63121C6.94062 3.35978 7.23737 3.4827 7.45616 3.70149C7.67496 3.92028 7.79787 4.21703 7.79787 4.52645V5.69312C7.79787 6.18312 7.50621 6.59728 7.07454 6.77228L7.79787 9.19312H6.63121L5.93121 6.85978H5.46454V9.19312H4.29787V3.35978ZM5.46454 4.52645V5.69312H6.63121V4.52645H5.46454ZM6.04787 0.443115C6.81392 0.443115 7.57246 0.593999 8.28019 0.887151C8.98793 1.1803 9.63099 1.60998 10.1727 2.15166C10.7143 2.69333 11.144 3.3364 11.4372 4.04413C11.7303 4.75186 11.8812 5.5104 11.8812 6.27645C11.8812 7.82355 11.2666 9.30728 10.1727 10.4012C9.0787 11.4952 7.59497 12.1098 6.04787 12.1098C5.28183 12.1098 4.52328 11.9589 3.81555 11.6657C3.10782 11.3726 2.46476 10.9429 1.92308 10.4012C0.82912 9.30728 0.214539 7.82355 0.214539 6.27645C0.214539 4.72935 0.82912 3.24562 1.92308 2.15166C3.01704 1.0577 4.50078 0.443115 6.04787 0.443115ZM6.04787 1.60978C4.8102 1.60978 3.62321 2.10145 2.74804 2.97662C1.87287 3.85179 1.38121 5.03877 1.38121 6.27645C1.38121 8.84895 3.46954 10.9431 6.04787 10.9431C7.28555 10.9431 8.47253 10.4515 9.3477 9.57628C10.2229 8.70111 10.7145 7.51413 10.7145 6.27645C10.7145 5.03877 10.2229 3.85179 9.3477 2.97662C8.47253 2.10145 7.28555 1.60978 6.04787 1.60978Z" fill="white"/>
</svg>
