<svg width="119" height="157" viewBox="0 0 119 157" fill="none" xmlns="http://www.w3.org/2000/svg">
<path d="M106.086 64.6715C97.7696 50.3165 86.5823 39.2249 74.8878 32.6886C71.5787 30.7549 68.1341 29.063 64.5809 27.6261C65.0442 26.229 64.9795 24.7105 64.3991 23.3579C64.9071 23.0151 65.3673 22.6064 65.7676 22.1425C68.5907 18.8695 68.5812 13.3668 65.7676 8.46695C63.2794 4.16046 59.2983 1.48086 55.3937 1.48086C54.8963 1.48142 54.3999 1.52626 53.9104 1.61484C53.0961 1.77197 52.3135 2.06302 51.5944 2.47614C47.087 5.07917 46.2544 11.7877 49.6804 17.7881C50.7278 19.65 52.1444 21.2782 53.8434 22.5731C53.4703 23.1606 53.2016 23.8081 53.0491 24.4871C49.4316 24.0469 45.9864 24.3149 43.2781 25.8748L19.1043 39.6843L18.6928 39.9905C-2.13152 52.0104 -4.42832 86.9983 13.5441 118.158C31.5166 149.318 62.9731 164.802 83.7783 152.792L92.8698 147.605L100.956 142.82C121.762 130.8 124.068 95.8123 106.086 64.6715Z" fill="#F2F2F2" class="is-bgGray"/>
<path d="M18.645 39.4449C-2.16017 51.4553 -4.46654 86.4432 13.5059 117.584C31.4784 148.725 62.9445 164.228 83.7497 152.208L92.8412 147.021" stroke="#D68F4C" class="is-stroke" stroke-linecap="round" stroke-linejoin="round"/>
<path d="M68.0159 146.323C52.2254 146.323 33.784 132.771 22.1278 112.598C7.18901 86.7589 7.86848 57.1589 23.6207 48.0674C25.5724 46.9402 27.7019 46.1538 29.9177 45.7419C31.4002 45.4597 32.9066 45.3219 34.4156 45.3304C50.2157 45.3304 68.6571 58.8815 80.2942 79.0455C93.1658 101.411 94.7066 126.771 83.9691 139.212C82.4984 140.947 80.7407 142.417 78.7726 143.557C75.4969 145.419 71.7836 146.374 68.0159 146.323V146.323Z" stroke="#D68F4C" class="is-stroke" stroke-linecap="round" stroke-linejoin="round"/>
<path d="M68.0159 146.323C52.2254 146.323 33.784 132.771 22.1278 112.598C7.18901 86.7589 7.86848 57.1589 23.6207 48.0674C25.5724 46.9402 27.7019 46.1538 29.9177 45.7419C31.4002 45.4597 32.9066 45.3219 34.4156 45.3304C50.2157 45.3304 68.6571 58.8815 80.2942 79.0455C93.1658 101.411 94.7066 126.771 83.9691 139.212C82.4984 140.947 80.7407 142.417 78.7726 143.557C75.4969 145.419 71.7836 146.374 68.0159 146.323V146.323Z" stroke="#D68F4C" class="is-stroke" stroke-linecap="round" stroke-linejoin="round"/>
<path d="M58.8582 31.1766C62.1721 31.1766 64.8586 28.4901 64.8586 25.1762C64.8586 21.8623 62.1721 19.1758 58.8582 19.1758C55.5443 19.1758 52.8578 21.8623 52.8578 25.1762C52.8578 28.4901 55.5443 31.1766 58.8582 31.1766Z" fill="#F2F2F2" class="is-bgGray is-stroke" stroke="#D68F4C" stroke-linecap="round" stroke-linejoin="round"/>
<path d="M60.0163 24.1805C56.1118 24.1805 52.1402 21.5104 49.652 17.1944C46.2068 11.2323 47.0394 4.52371 51.566 1.88239C52.2892 1.47082 53.0747 1.1799 53.8915 1.02109C54.381 0.932507 54.8774 0.88767 55.3749 0.887108C59.2794 0.887108 63.251 3.56671 65.7392 7.8732C68.6102 12.7826 68.6102 18.2758 65.7392 21.5487C65.1974 22.1871 64.55 22.7277 63.8252 23.1469C62.6677 23.8184 61.3545 24.1747 60.0163 24.1805Z" fill="#F2F2F2" class="is-bgGray is-stroke" stroke="#D68F4C" stroke-linecap="round" stroke-linejoin="round"/>
<path d="M59.0788 16.7162C57.7677 16.7162 56.2078 15.5965 55.2508 13.9409C54.0258 11.8067 54.0832 9.3664 55.3752 8.61994C55.5358 8.5282 55.7104 8.46354 55.892 8.42854C56.0162 8.41912 56.141 8.41912 56.2652 8.42854C57.5667 8.42854 59.1362 9.54823 60.0932 11.2134C61.1555 13.0508 61.2799 15.1371 60.3994 16.1707C60.2789 16.3142 60.1329 16.4343 59.9688 16.5248C59.695 16.6681 59.3873 16.7343 59.0788 16.7162Z" fill="#F2F2F2" class="is-bgGray is-stroke" stroke="#D68F4C" stroke-linecap="round" stroke-linejoin="round"/>
<path d="M45.4984 105.621L50.1111 125.249L55.078 109.899" fill="#D68F4C" class="is-bgLine"/>
<path d="M45.4984 105.621L50.1111 125.249L55.078 109.899" stroke="#D68F4C" class="is-stroke" stroke-linejoin="round"/>
<path d="M55.5471 99.736L50.0827 76.9116L44.0344 95.0084" fill="#F2F2F2" class="is-bgGray"/>
<path d="M55.5471 99.736L50.0827 76.9116L44.0344 95.0084" stroke="#D68F4C" class="is-stroke" stroke-linecap="round" stroke-linejoin="round"/>
<path d="M55.6621 109.354C55.4876 109.568 55.2848 109.758 55.0592 109.919C54.9704 109.985 54.8777 110.045 54.7817 110.1C54.2204 110.414 53.5871 110.576 52.9443 110.569C50.2359 110.569 47.0778 108.253 45.0873 104.827C42.5321 100.396 42.6469 95.3434 45.3457 93.7835C45.678 93.5907 46.0403 93.4549 46.4175 93.3816C46.6699 93.3343 46.9263 93.3119 47.1831 93.3146C49.8914 93.3146 53.04 95.6401 55.0401 99.0566C57.2507 102.846 57.5091 107.22 55.6621 109.354Z" fill="#F2F2F2" stroke="#D68F4C" class="is-bgGray is-stroke" stroke-linecap="round" stroke-linejoin="round"/>
<path d="M52.8577 60.4416V67.2459C52.8642 67.2889 52.8543 67.3327 52.8298 67.3687C52.8053 67.4047 52.7682 67.43 52.7258 67.4397C52.6834 67.4494 52.6389 67.4427 52.6012 67.421C52.5635 67.3992 52.5355 67.364 52.5227 67.3224L47.8143 57.2452C47.8002 57.2135 47.7768 57.1869 47.7473 57.1687L45.1251 55.647C45.0986 55.6317 45.0686 55.6238 45.038 55.6239C45.0074 55.6241 44.9774 55.6324 44.9511 55.648C44.9248 55.6636 44.9031 55.6859 44.8883 55.7126C44.8735 55.7394 44.866 55.7696 44.8667 55.8002V67.9732C44.8649 68.0043 44.8721 68.0352 44.8874 68.0624C44.9026 68.0895 44.9254 68.1117 44.9529 68.1263L47.5368 69.5714C47.5632 69.5867 47.5933 69.5947 47.6239 69.5945C47.6545 69.5943 47.6844 69.586 47.7108 69.5704C47.7371 69.5548 47.7587 69.5325 47.7736 69.5058C47.7884 69.479 47.7959 69.4488 47.7951 69.4183V62.5374C47.7886 62.4944 47.7986 62.4506 47.823 62.4146C47.8475 62.3786 47.8847 62.3533 47.9271 62.3436C47.9695 62.3339 48.014 62.3406 48.0516 62.3623C48.0893 62.3841 48.1173 62.4193 48.1301 62.4609L52.829 72.4998C52.8435 72.5343 52.871 72.5618 52.9055 72.5764L55.4703 74.0023C55.4968 74.0176 55.5268 74.0256 55.5574 74.0254C55.588 74.0252 55.618 74.0169 55.6443 74.0013C55.6706 73.9857 55.6923 73.9634 55.7071 73.9367C55.7219 73.9099 55.7294 73.8797 55.7287 73.8492V61.8867C55.7269 61.8576 55.7181 61.8294 55.7031 61.8044C55.6881 61.7794 55.6673 61.7584 55.6425 61.7431L53.1352 60.2885C53.1086 60.2677 53.0765 60.2551 53.0428 60.2524C53.0091 60.2497 52.9754 60.257 52.9458 60.2733C52.9163 60.2896 52.8921 60.3143 52.8765 60.3442C52.8608 60.3741 52.8543 60.408 52.8577 60.4416Z" fill="#D68F4C" class="is-bgLine"/>
<path d="M19.0469 39.1384L43.2398 25.2332" stroke="#D68F4C" class="is-stroke" stroke-linecap="round" stroke-linejoin="round"/>
<path d="M100.928 142.255C121.733 130.245 124.03 95.2571 106.057 64.1259C97.7411 49.723 86.5442 38.6697 74.8593 32.1334" stroke="#D68F4C" class="is-stroke" stroke-linecap="round" stroke-linejoin="round"/>
<path d="M100.142 135.011C107.32 118.627 104.813 94.453 91.9888 72.2411C77.4042 46.9763 53.9481 32.0279 34.5114 33.674C30.0195 34.0265 25.6621 35.3732 21.7546 37.6168" stroke="#D68F4C" class="is-stroke" stroke-linecap="round" stroke-linejoin="round"/>
<path d="M20.5781 80.0791L30.885 86.0221" stroke="#D68F4C" class="is-stroke" stroke-linecap="round" stroke-linejoin="round"/>
<path d="M70.2078 108.579L80.5051 114.531" stroke="#D68F4C" class="is-stroke" stroke-linecap="round" stroke-linejoin="round"/>
</svg>
